<svg xmlns="http://www.w3.org/2000/svg" version="1.1" xmlns:xlink="http://www.w3.org/1999/xlink" width="512" height="512" x="0" y="0" viewBox="0 0 512 512" style="enable-background:new 0 0 512 512" xml:space="preserve" class=""><g><path d="m310.32 215.781 81.863 81.928c-5.691 20.056-.16 41.87 14.769 56.803 16.403 16.42 41.012 21.568 62.769 12.755 5.199-2.104 6.555-8.871 2.533-12.82l-16.699-16.356 2.029-14.88 15.692-2.128 15.967 15.974c4.215 4.215 11.351 2.316 13.014-3.311 7.873-21.189 2.67-45.127-13.343-61.144-14.922-14.941-36.732-20.479-56.788-14.8l-81.871-81.924c5.699-20.059.168-41.881-14.761-56.814-16.043-16.051-40.035-21.246-61.273-13.335a7.814 7.814 0 0 0-3.997 2.884 7.822 7.822 0 0 0 .816 10.093l15.967 15.971-2.144 15.692-14.884 2.018-16.341-16.703a7.791 7.791 0 0 0-7.095-2.201 7.815 7.815 0 0 0-5.729 4.722 57.833 57.833 0 0 0 12.709 62.772c14.908 14.926 36.711 20.491 56.797 14.804zm-58.016-59.122 9.254 9.46a7.797 7.797 0 0 0 6.637 2.277l24.656-3.345a7.812 7.812 0 0 0 6.69-6.683l3.471-25.415a7.831 7.831 0 0 0-2.22-6.58l-8.605-8.613c11.786-.599 23.618 3.708 32.262 12.351 11.794 11.805 15.562 29.5 9.589 45.082a7.815 7.815 0 0 0 2.609 9.051l-.053.061 87.89 87.943a7.825 7.825 0 0 0 8.315 1.774c15.593-5.958 33.276-2.174 45.07 9.624 8.636 8.643 12.969 20.449 12.328 32.265l-8.613-8.613a7.766 7.766 0 0 0-6.576-2.216l-25.411 3.448a7.812 7.812 0 0 0-6.69 6.683l-3.364 24.656a7.835 7.835 0 0 0 2.273 6.637l9.46 9.261c-12.114.973-24.335-3.357-33.276-12.301-11.802-11.805-15.562-29.496-9.582-45.07a7.81 7.81 0 0 0-1.77-8.323l-88.683-88.744a7.814 7.814 0 0 0-8.315-1.774c-15.555 5.962-33.261 2.197-45.078-9.624a42.229 42.229 0 0 1-12.268-33.272z" fill="#f2bc1b" opacity="1" data-original="#000000" class=""></path><path d="M282.816 245.947c.078-12.889-10.389-23.435-23.357-23.513l-15.702-.078-3.281-29.997c-1.094-10.312-5.937-19.295-13.124-25.779-7.187-6.406-16.639-10.312-26.951-10.39l-110.927-.469h-.234c-20.545 0-37.809 15.311-40.231 35.778l-3.515 29.919s-1.718 0-15.936-.078c-6.249 0-12.108 2.422-16.483 6.796-4.453 4.453-6.953 10.312-6.953 16.561-.078 11.014 7.499 20.467 18.201 22.888-4.219 5.859-6.484 12.811-6.562 20.233l-.312 67.65c0 3.594 2.422 6.796 5.937 7.655 3.124.703 6.171 1.407 9.296 2.109l-.156 25.779c0 9.843 7.968 17.967 17.889 18.045l17.186.078h.078c9.843 0 17.967-7.968 17.967-17.889l.078-17.03c19.686 2.343 39.527 3.437 59.447 3.437 17.576 0 35.309-1.016 53.042-2.813l-.078 16.952c-.078 9.843 7.968 17.967 17.889 18.045l17.186.078h.078c9.843 0 17.889-7.968 17.967-17.889l.078-25.232c4.375-.859 8.749-1.562 13.045-2.578 3.594-.781 6.093-3.906 6.093-7.577l.312-67.65c.078-7.343-2.188-14.373-6.328-20.232 10.471-2.342 18.283-11.638 18.361-22.809zM64.556 193.14c1.484-12.499 12.108-21.795 24.685-21.795h.156l110.927.469c12.655.078 23.279 9.609 24.607 22.264.078.781 4.921 56.088 5.234 59.447l-171.468-.781c.078-.782 5.859-59.604 5.859-59.604zm190.372 157.172c-75.149 16.014-149.673 15.624-221.853-1.016l.312-61.478c.078-10.858 8.906-19.452 19.608-19.452l182.717.86c10.78 0 19.529 8.827 19.451 19.685z" fill="#f2bc1b" opacity="1" data-original="#000000" class=""></path><path d="M88.694 315.16c-.078 14.53-11.796 26.091-26.17 26.091h-.156c-14.53-.078-26.17-11.796-26.091-26.326.078-14.452 11.796-26.091 26.247-26.091h.078c14.453.078 26.17 11.874 26.092 26.326zM252.038 315.941c-.078 14.608-11.952 26.091-26.247 26.091h-.078c-14.53-.078-26.169-11.796-26.091-26.326.078-14.608 11.952-26.091 26.169-26.091h.156c14.451.078 26.169 11.874 26.091 26.326zM116.407 312.371l52.76.248h.038a7.812 7.812 0 0 0 .038-15.624l-52.76-.248h-.038a7.817 7.817 0 0 0-7.812 7.774 7.813 7.813 0 0 0 7.774 7.85zM177.81 321.506l-70.123-.328h-.038a7.812 7.812 0 0 0-.038 15.624l70.123.328h.038a7.817 7.817 0 0 0 7.812-7.774 7.813 7.813 0 0 0-7.774-7.85z" fill="#f2bc1b" opacity="1" data-original="#000000" class=""></path></g></svg>