<svg xmlns="http://www.w3.org/2000/svg" version="1.1" xmlns:xlink="http://www.w3.org/1999/xlink" width="512" height="512" x="0" y="0" viewBox="0 0 128 128" style="enable-background:new 0 0 512 512" xml:space="preserve" class=""><g><path d="M1 10h14.715a1 1 0 1 0 0-2H1a1 1 0 1 0 0 2zM1 2h14.715a1 1 0 1 0 0-2H1a1 1 0 1 0 0 2zM1 6h21a1 1 0 1 0 0-2H1a1 1 0 1 0 0 2z" fill="#f2bc1b" opacity="1" data-original="#000000" class=""></path><circle cx="26" cy="5" r="1" fill="#f2bc1b" opacity="1" data-original="#000000" class=""></circle><path d="M15.715 126H1a1 1 0 1 0 0 2h14.715a1 1 0 1 0 0-2zM1 120h14.715a1 1 0 1 0 0-2H1a1 1 0 1 0 0 2zM22 122H1a1 1 0 1 0 0 2h21a1 1 0 1 0 0-2z" fill="#f2bc1b" opacity="1" data-original="#000000" class=""></path><circle cx="26" cy="123" r="1" fill="#f2bc1b" opacity="1" data-original="#000000" class=""></circle><path d="M127 126h-14.715a1 1 0 1 0 0 2H127a1 1 0 1 0 0-2zM127 118h-14.715a1 1 0 1 0 0 2H127a1 1 0 1 0 0-2zM127 122h-21a1 1 0 1 0 0 2h21a1 1 0 1 0 0-2z" fill="#f2bc1b" opacity="1" data-original="#000000" class=""></path><circle cx="102" cy="123" r="1" fill="#f2bc1b" opacity="1" data-original="#000000" class=""></circle><path d="M127 8h-14.715a1 1 0 1 0 0 2H127a1 1 0 1 0 0-2zM112.285 2H127a1 1 0 1 0 0-2h-14.715a1 1 0 1 0 0 2zM127 4h-21a1 1 0 1 0 0 2h21a1 1 0 1 0 0-2z" fill="#f2bc1b" opacity="1" data-original="#000000" class=""></path><circle cx="102" cy="5" r="1" fill="#f2bc1b" opacity="1" data-original="#000000" class=""></circle><path d="m17.46 50.876-10 6.412a1 1 0 0 0 1.08 1.684l10-6.412a1 1 0 0 0-1.08-1.684zM16.26 55.581l-3.907 2.585a1 1 0 1 0 1.104 1.668l3.906-2.585a1 1 0 1 0-1.103-1.668zM9.368 54.587c.19 0 .381-.054.55-.166l3.91-2.587a1 1 0 1 0-1.104-1.668l-3.909 2.587a1 1 0 0 0 .553 1.834zM83.444 97.623a1.002 1.002 0 0 0-.257-1.879l-4.439-.848a1 1 0 0 0-.375 1.965l1.395.266-.103.049a1 1 0 0 0-.509 1.257c.427 1.134.896 2.273 1.363 3.405l.318.772c-1.27-.675-2.536-1.352-3.799-2.03a1.001 1.001 0 0 0-1.253.253c-.393.49-.777.995-1.153 1.506a314.959 314.959 0 0 1-.331-3.176 1 1 0 0 0-1.144-.889c-1.656.248-3.31.5-4.96.758l.373-.42c.663-.749 1.33-1.5 1.967-2.258a1 1 0 0 0-.188-1.46 114.025 114.025 0 0 0-3.045-2.055l.19-.062c.81-.26 1.587-.511 2.664-.814a1 1 0 0 0-.54-1.926 68.81 68.81 0 0 0-2.737.837c-.646.208-1.312.423-2.165.675a1 1 0 0 0-.276 1.788c.59.397 1.185.79 1.782 1.184.694.458 1.388.916 2.07 1.38-.402.463-.81.924-1.219 1.383a95.821 95.821 0 0 0-2.19 2.528.999.999 0 0 0 .93 1.624c2.195-.355 4.396-.695 6.604-1.028.164 1.604.334 3.178.536 4.722a1 1 0 0 0 1.803.455l.46-.642c.526-.733 1.065-1.485 1.616-2.205 1.817.975 3.642 1.946 5.469 2.915a1 1 0 0 0 1.405-1.235c-.414-1.1-.875-2.218-1.338-3.343-.34-.824-.682-1.652-1.007-2.48l.25-.11c.508-.228.991-.446 1.833-.862zM27 87a4 4 0 1 0 0 8 4 4 0 0 0 0-8zm0 6c-1.103 0-2-.897-2-2s.897-2 2-2c1.102 0 2 .897 2 2s-.898 2-2 2zM70 32.001a3 3 0 1 0-6-.003 3 3 0 0 0 6 .003zm-4 0a1 1 0 1 1 2-.002 1 1 0 0 1-2 .002z" fill="#f2bc1b" opacity="1" data-original="#000000" class=""></path><path d="M73.237 84.01c.025-.031.032-.069.053-.102l.315.1c-.035.092-.078.177-.108.27-.895 2.725.32 5.574 2.698 6.331.399.127.805.188 1.21.188 2.015 0 3.994-1.496 4.74-3.766.03-.093.046-.186.07-.28l25.98 8.272c-.037.09-.079.175-.11.268-.894 2.727.32 5.575 2.698 6.332.399.127.805.188 1.21.188 2.015 0 3.994-1.497 4.74-3.766.03-.093.046-.187.07-.28l4.055 1.292c.239.075.48.111.717.111.99 0 1.907-.625 2.222-1.608l2.94-9.171c.492-1.485 1.14-2.975 1.229-4.556a5.563 5.563 0 0 0-.083-1.31c-.205-1.12-.74-2.162-1.48-3.052a8.537 8.537 0 0 0-.907-.925 16.378 16.378 0 0 0-.963-.833c-.046-.71-.449-8.312-.576-10.725-.154-2.888-.093-5.367-3.046-6.497l-14.287-4.564-.617-.198-14.286-4.564A2.927 2.927 0 0 0 90.76 51c-1.97 0-3.634 2.062-5.001 3.784-1.502 1.894-5.025 6.349-5.365 6.778-.434.542-.864 1.079-1.309 1.632-.434.023-.854.066-1.268.118-2.1.262-4.195 1.193-5.236 3.123-.71 1.316-.998 2.776-1.467 4.182 0 0-1.803 5.27-3.013 9.206-.377 1.225.341 2.542 1.573 2.934l1.557.496A5.972 5.972 0 0 1 67 85 6.008 6.008 0 0 1 61 78.997 6.005 6.005 0 0 1 66.999 73a1 1 0 0 0 1-1c0-.088-.028-.166-.05-.248.022-.082.051-.162.051-.252v-6.642a3.991 3.991 0 0 0 3-3.86c0-1.86-1.277-3.41-3-3.856V38.92A6.996 6.996 0 0 0 66.999 25 7 7 0 0 0 60 31.997c0 .19.014.378.028.565L26.395 48.938v-3.494c0-.793-.653-1.444-1.461-1.444H0v48h16.05c.507 5.607 5.214 10 10.95 10 5.738 0 10.443-4.393 10.95-10H56v-7.298c0-.794-.653-1.443-1.467-1.443h-4.225v-18.35c0-.796-.654-1.442-1.465-1.442H26.968l35.669-26A6.957 6.957 0 0 0 66 38.922v18.22c-1.722.447-3 1.998-3 3.857a3.991 3.991 0 0 0 3 3.86v6.211c-3.94.494-7 3.858-7 7.928C59 83.41 62.588 87 66.999 87c2.436 0 4.71-1.09 6.238-2.99zm7.007 2.397c-.454 1.385-1.648 2.39-2.839 2.39-.206 0-.409-.031-.602-.093-.676-.216-1.058-.731-1.26-1.126-.397-.775-.45-1.75-.146-2.676.034-.1.083-.188.123-.283l4.786 1.524c-.023.087-.034.176-.062.264zm34.588 11.014c-.454 1.385-1.648 2.39-2.839 2.39-.206 0-.409-.032-.603-.094-.674-.214-1.056-.729-1.258-1.123-.397-.776-.45-1.752-.146-2.679.033-.1.082-.187.122-.281l4.785 1.523c-.022.088-.033.176-.061.264zM70.28 80.85c-.192-.061-.32-.27-.268-.44 1.188-3.86 4.237-12.926 4.595-13.446.69-.897 1.858-1.46 3.458-1.67.431-.053.788-.086 1.123-.104l.894-.045.562-.699 6.681-8.42C88.224 54.895 89.728 53 90.76 53c.098 0 .199.018.357.072l14.281 4.563.618.197 14.228 4.546c1.362.537 1.549 1.343 1.69 4.196 0 0 .568 10.713.603 11.268l.058.885c1.15.915 2.383 1.834 3.026 3.197.32.679.393 1.426.31 2.16-.043.388-4.04 12.866-4.04 12.866-.047.15-.193.218-.316.218a.384.384 0 0 1-.11-.017zM27 100c-4.963 0-9-4.038-9-9.001C18 86.037 22.037 82 27 82s9 4.037 9 8.999c0 4.963-4.037 9.001-9 9.001zm21.308-34.533v19.792H54V90H37.95c-.506-5.604-5.212-10-10.95-10-5.737 0-10.443 4.396-10.95 10H2V66h18a1 1 0 1 0 0-2H2V46h22.395v19.467h2zM26.395 61.41V51.163l34.096-16.601c.2.51.458.99.767 1.435zM62 31.997A5.003 5.003 0 0 1 66.999 27 5.004 5.004 0 0 1 72 31.997 5.007 5.007 0 0 1 66.999 37 5.006 5.006 0 0 1 62 31.997zm3 29.001a2 2 0 0 1 4 0A2.004 2.004 0 0 1 66.999 63 2.003 2.003 0 0 1 65 60.998z" fill="#f2bc1b" opacity="1" data-original="#000000" class=""></path><path d="M82.433 71.48a4.544 4.544 0 0 0-1.384-.216 4.467 4.467 0 0 0-4.276 3.108c-.749 2.352.57 4.88 2.942 5.639.45.142.914.216 1.382.216a4.47 4.47 0 0 0 4.277-3.112c.748-2.352-.571-4.88-2.941-5.636zm1.036 5.028c-.409 1.274-1.842 2.013-3.146 1.597-1.321-.422-2.058-1.824-1.644-3.126a2.473 2.473 0 0 1 2.37-1.715c.261 0 .523.04.776.122 1.32.42 2.057 1.821 1.644 3.122zM117.02 82.495a4.511 4.511 0 0 0-1.382-.217 4.464 4.464 0 0 0-4.276 3.11 4.425 4.425 0 0 0 .3 3.422 4.509 4.509 0 0 0 2.642 2.215c.449.143.914.216 1.38.216a4.464 4.464 0 0 0 4.276-3.11 4.424 4.424 0 0 0-.288-3.402 4.495 4.495 0 0 0-2.652-2.234zm1.035 5.028c-.406 1.274-1.833 2.016-3.144 1.596a2.514 2.514 0 0 1-1.476-1.236 2.436 2.436 0 0 1-.166-1.888 2.47 2.47 0 0 1 2.369-1.717c.26 0 .521.041.775.122a2.514 2.514 0 0 1 1.482 1.246 2.44 2.44 0 0 1 .16 1.877zM117.032 74.855c.187.058.367.085.538.085.793 0 1.382-.59 1.389-1.494l.05-6.622c.01-1.1-.841-2.273-1.889-2.606l-23.71-7.55a2.383 2.383 0 0 0-.725-.107c-.888 0-1.83.438-2.319 1.144l-3.948 5.697c-.626.905-.278 1.91.772 2.235zM92.011 58.844c.08-.116.383-.283.674-.283.07 0 .109.01.119.012l23.71 7.551c.21.066.498.463.496.685l-.046 5.932-28.487-8.8zM107.318 79.845l-15.25-4.855a3.98 3.98 0 0 0-1.21-.188c-1.699 0-3.295 1.085-3.85 2.774l-.034.108a3.968 3.968 0 0 0 2.563 5.013l15.252 4.856c.401.128.809.188 1.211.188 1.698 0 3.293-1.085 3.848-2.775l.035-.107a3.97 3.97 0 0 0-2.565-5.014zm.665 4.387-.036.11a2.065 2.065 0 0 1-1.947 1.4c-.204 0-.407-.032-.605-.096l-15.25-4.854a1.953 1.953 0 0 1-1.153-.98 1.954 1.954 0 0 1-.118-1.506l.035-.106a2.067 2.067 0 0 1 1.948-1.398c.205 0 .409.031.605.094l15.249 4.854c.502.16.911.508 1.152.979a1.95 1.95 0 0 1 .12 1.503zM12 80H8a1 1 0 1 0 0 2h4a1 1 0 1 0 0-2z" fill="#f2bc1b" opacity="1" data-original="#000000" class=""></path></g></svg>