<svg xmlns="http://www.w3.org/2000/svg" version="1.1" xmlns:xlink="http://www.w3.org/1999/xlink" width="512" height="512" x="0" y="0" viewBox="0 0 512.001 512.001" style="enable-background:new 0 0 512 512" xml:space="preserve" class=""><g><path d="m231.552 412.811-45.499-64.416c-7.45-10.546-21.115-14.797-33.233-10.339l-21.679 7.977c-6.341 2.334-13.506-.347-16.666-6.232-10.028-18.677-19.022-38.772-26.732-59.728-7.696-20.916-13.864-42.01-18.331-62.697-1.424-6.595 2.285-13.328 8.627-15.661l21.679-7.977c12.118-4.458 19.769-16.553 18.606-29.413l-7.104-78.544c-.834-9.225-5.802-17.354-13.629-22.306-7.828-4.951-17.302-5.957-25.995-2.758l-31.773 11.69c-23.97 8.82-38.058 38.371-39.668 83.207-1.528 42.544 8.171 94.62 27.311 146.636 19.139 52.017 45.507 97.959 74.245 129.367 24.202 26.45 48.142 40.303 69.015 40.302 5.249 0 10.306-.876 15.123-2.649l31.773-11.691c8.692-3.198 15.256-10.105 18.007-18.949 2.753-8.843 1.267-18.254-4.077-25.819zm-50.882 42.381c-3.088 1.138-6.393 1.698-9.887 1.698-16.429-.001-36.953-12.39-58.005-35.397-27.454-30.004-52.752-74.19-71.234-124.42-18.483-50.23-27.857-100.277-26.397-140.92 1.357-37.793 12.24-63.186 29.857-69.668l5.178-1.905.876 7.177a7.502 7.502 0 0 0 14.89-1.818l-1.304-10.681 12.133-4.464a14.59 14.59 0 0 1 5.044-.905c2.705 0 5.382.764 7.751 2.263a14.436 14.436 0 0 1 6.709 10.98l7.104 78.543a13.618 13.618 0 0 1-8.847 13.985l-16.879 6.211-7.5-61.433a7.5 7.5 0 0 0-14.89 1.818l8.195 67.123c-7.311 6.713-10.907 17.013-8.715 27.164 4.615 21.368 10.979 43.14 18.916 64.709 7.952 21.611 17.235 42.351 27.594 61.643 4.889 9.105 14.284 14.582 24.192 14.94l60.398 91.452-5.179 1.905zm40.639-21.017a14.436 14.436 0 0 1-8.864 9.328l-12.133 4.464-59.19-89.624 16.879-6.21a13.617 13.617 0 0 1 15.801 4.916l45.5 64.417a14.44 14.44 0 0 1 2.007 12.709zM256.002 184.37h-38.984c3.444-7.829 11.933-14.144 20.8-20.741 12.627-9.393 25.683-19.106 25.683-35.044 0-13.669-13.858-24.376-31.548-24.376-17.69 0-31.548 10.708-31.548 24.376a7.5 7.5 0 0 0 15 0c0-4.426 7.077-9.376 16.548-9.376 9.471 0 16.548 4.95 16.548 9.376 0 7.816-7.775 14.185-19.636 23.009-13.34 9.924-28.46 21.173-28.46 40.276a7.5 7.5 0 0 0 7.5 7.5h48.097a7.5 7.5 0 0 0 0-15zM328.145 160.322h-.516V111.71a7.5 7.5 0 0 0-15 0v48.613h-23.933l6.793-47.553a7.5 7.5 0 0 0-14.849-2.121l-8.016 56.113a7.502 7.502 0 0 0 7.425 8.561h32.581v16.548a7.5 7.5 0 0 0 15 0v-16.548h.516a7.5 7.5 0 1 0-.001-15.001zM386.63 88.562a7.5 7.5 0 0 0-9.487 4.744l-40.081 120.241a7.5 7.5 0 0 0 14.231 4.744l40.08-120.241a7.502 7.502 0 0 0-4.743-9.488zM454.596 107.506a7.495 7.495 0 0 0-6.21-3.296h-40.081a7.5 7.5 0 0 0 0 15h29.003l-27.95 69.875a7.5 7.5 0 0 0 4.178 9.749 7.47 7.47 0 0 0 2.783.539 7.502 7.502 0 0 0 6.966-4.716l32.064-80.161a7.498 7.498 0 0 0-.753-6.99z" fill="#f2bc1b" opacity="1" data-original="#000000" class=""></path><path d="M481.127 74.691c-21.292-22.318-50.001-34.61-80.836-34.61H258.945c-29.215 0-57.142 10.845-78.635 30.537-21.783 19.956-34.529 46.869-35.89 75.781-1.455 30.889 9.464 60.185 30.745 82.49 21.292 22.318 50.001 34.61 80.836 34.61h5.112l-31.7 82.42c-1.784 4.638-.281 9.715 3.741 12.634 1.927 1.399 4.146 2.094 6.359 2.094 2.405 0 4.803-.821 6.812-2.453l116.548-94.696h34.475c29.215 0 57.142-10.845 78.635-30.538 21.783-19.957 34.528-46.87 35.89-75.782 1.453-30.886-9.466-60.181-30.746-82.487zm15.762 81.783c-1.174 24.929-12.197 48.165-31.039 65.427-18.721 17.152-43.05 26.598-68.502 26.598h-37.137a7.497 7.497 0 0 0-4.729 1.679l-106.433 86.477 29.986-77.963a7.5 7.5 0 0 0-7-10.192h-16.032c-26.696 0-51.55-10.642-69.983-29.964-18.422-19.31-27.875-44.678-26.615-71.43 1.174-24.929 12.197-48.165 31.04-65.427 18.721-17.151 43.049-26.597 68.502-26.597h141.346c26.696 0 51.55 10.642 69.983 29.964 18.42 19.309 27.872 44.676 26.613 71.428z" fill="#f2bc1b" opacity="1" data-original="#000000" class=""></path></g></svg>