<svg xmlns="http://www.w3.org/2000/svg" version="1.1" xmlns:xlink="http://www.w3.org/1999/xlink" width="512" height="512" x="0" y="0" viewBox="0 0 682.667 682.667" style="enable-background:new 0 0 512 512" xml:space="preserve" class=""><g><defs><clipPath id="a" clipPathUnits="userSpaceOnUse"><path d="M0 512h512V0H0Z" fill="#f2bc1b" opacity="1" data-original="#000000" class=""></path></clipPath></defs><g clip-path="url(#a)" transform="matrix(1.33333 0 0 -1.33333 0 682.667)"><path d="m0 0-19.985 110.739c-.089.495-.211.978-.324 1.464h-3.921l-33.901-33.805-.623-4.64c2.865-10.993-.001-23.171-8.614-31.784-12.928-12.928-33.887-12.928-46.815 0-12.927 12.927-12.926 33.886 0 46.814 8.614 8.613 20.791 11.48 31.785 8.614l6.6-.171 31.845 33v5.617c-.486.112-.969.234-1.464.323l-72.532 13.09-20.234-4.946-275.115-284.251v-18.158l137.334-124.842 10.399-1.793L-8.734-27.898A31.534 31.534 0 0 1 0 0" style="fill-opacity:1;fill-rule:nonzero;stroke:none" transform="translate(473.759 317.602)" fill="#23211f" data-original="#ff5595" class="" opacity="1"></path><path d="M0 0c-6.286 6.286-6.286 16.478 0 22.763l277.488 277.489c.65.649 1.332 1.255 2.028 1.839l-38.207 6.895a31.534 31.534 0 0 1-27.899-8.734L-64.079 22.763c-6.285-6.285-6.285-16.477 0-22.763L88.479-152.558c6.286-6.285 16.477-6.285 22.762 0l20.658 20.659z" style="fill-opacity:1;fill-rule:nonzero;stroke:none" transform="translate(76.294 164.772)" fill="#8c030e" data-original="#ff3581" class="" opacity="1"></path><path d="M0 0c-6.529 6.529-17.115 6.529-23.645 0l-53.942-53.942-4.056-6.328 4.057-12.167 7.777-5.666 4.666-2.167h4.567l6.634 2.684L0-23.645C6.529-17.115 6.529-6.528 0 0" style="fill-opacity:1;fill-rule:nonzero;stroke:none" transform="translate(499.603 499.603)" fill="#ffe559" data-original="#ffe559" class="" opacity="1"></path><path d="M0 0c-5.168 5.168-6.672 12.596-4.547 19.098l-35.48-35.48c-6.529-6.529-6.529-17.116 0-23.644 6.529-6.53 17.116-6.53 23.644 0l35.48 35.479C12.596-6.672 5.167-5.167 0 0" style="fill-opacity:1;fill-rule:nonzero;stroke:none" transform="translate(426.565 426.563)" fill="#fbc700" data-original="#fbc700" class=""></path><path d="m0 0 18.908 18.908 86.139-86.138" style="stroke-width:15;stroke-linecap:round;stroke-linejoin:round;stroke-miterlimit:10;stroke-dasharray:none;stroke-opacity:1" transform="translate(79.969 163.179)" fill="none" stroke="#f2bc1b" stroke-width="15" stroke-linecap="round" stroke-linejoin="round" stroke-miterlimit="10" stroke-dasharray="none" stroke-opacity="" data-original="#000000" class="" opacity="1"></path><path d="m0 0-35.366 35.366c-14.021 14.021-36.752 14.021-50.773 0-14.02-14.02-14.02-36.752 0-50.772l35.366-35.366c14.02-14.021 36.752-14.021 50.773 0C14.021-36.752 14.021-14.021 0 0z" style="stroke-width:15;stroke-linecap:round;stroke-linejoin:round;stroke-miterlimit:10;stroke-dasharray:none;stroke-opacity:1" transform="translate(235.613 197.318)" fill="none" stroke="#f2bc1b" stroke-width="15" stroke-linecap="round" stroke-linejoin="round" stroke-miterlimit="10" stroke-dasharray="none" stroke-opacity="" data-original="#000000" class="" opacity="1"></path><path d="m0 0 51.707-125.939" style="stroke-width:15;stroke-linecap:round;stroke-linejoin:round;stroke-miterlimit:10;stroke-dasharray:none;stroke-opacity:1" transform="translate(256.64 345.463)" fill="none" stroke="#f2bc1b" stroke-width="15" stroke-linecap="round" stroke-linejoin="round" stroke-miterlimit="10" stroke-dasharray="none" stroke-opacity="" data-original="#000000" class="" opacity="1"></path><path d="M0 0c10.379-10.378 11.541-26.042 2.597-34.986-8.944-8.945-24.608-7.782-34.987 2.597-10.378 10.378-11.541 26.042-2.596 34.987C-26.042 11.541-10.378 10.379 0 0Z" style="stroke-width:15;stroke-linecap:round;stroke-linejoin:round;stroke-miterlimit:10;stroke-dasharray:none;stroke-opacity:1" transform="translate(356.374 297.644)" fill="none" stroke="#f2bc1b" stroke-width="15" stroke-linecap="round" stroke-linejoin="round" stroke-miterlimit="10" stroke-dasharray="none" stroke-opacity="" data-original="#000000" class="" opacity="1"></path><path d="M0 0c10.378-10.378 11.541-26.042 2.597-34.986-8.945-8.944-24.608-7.782-34.987 2.597-10.378 10.378-11.541 26.042-2.596 34.987C-26.043 11.542-10.379 10.379 0 0Z" style="stroke-width:15;stroke-linecap:round;stroke-linejoin:round;stroke-miterlimit:10;stroke-dasharray:none;stroke-opacity:1" transform="translate(241.002 299.731)" fill="none" stroke="#f2bc1b" stroke-width="15" stroke-linecap="round" stroke-linejoin="round" stroke-miterlimit="10" stroke-dasharray="none" stroke-opacity="" data-original="#000000" class="" opacity="1"></path><path d="m0 0 7.818 7.818c6.53 6.53 6.53 17.116 0 23.645-6.529 6.529-17.115 6.529-23.644 0l-89.422-89.422c-6.529-6.529-6.529-17.115 0-23.645 6.529-6.529 17.115-6.529 23.644 0l56.856 56.856" style="stroke-width:15;stroke-linecap:round;stroke-linejoin:round;stroke-miterlimit:10;stroke-dasharray:none;stroke-opacity:1" transform="translate(491.785 468.14)" fill="none" stroke="#f2bc1b" stroke-width="15" stroke-linecap="round" stroke-linejoin="round" stroke-miterlimit="10" stroke-dasharray="none" stroke-opacity="" data-original="#000000" class="" opacity="1"></path><path d="m0 0 68.017-68.017c6.286-6.286 16.477-6.286 22.763 0l277.489 277.489a31.532 31.532 0 0 1 8.734 27.898l-19.984 110.739c-.09.495-.212.978-.325 1.464l-38.445-38.445c2.865-10.992-.001-23.17-8.614-31.783-12.927-12.928-33.887-12.928-46.814-.001-12.927 12.927-12.927 33.887 0 46.814 8.614 8.613 20.791 11.48 31.783 8.614l38.446 38.446c-.487.112-.969.234-1.464.324l-110.739 19.984a31.532 31.532 0 0 1-27.899-8.734L-84.54 107.304c-6.286-6.286-6.286-16.478 0-22.764l59.791-59.791" style="stroke-width:15;stroke-linecap:round;stroke-linejoin:round;stroke-miterlimit:10;stroke-dasharray:none;stroke-opacity:1" transform="translate(96.755 80.231)" fill="none" stroke="#f2bc1b" stroke-width="15" stroke-linecap="round" stroke-linejoin="round" stroke-miterlimit="10" stroke-dasharray="none" stroke-opacity="" data-original="#000000" class="" opacity="1"></path></g></g></svg>