<svg xmlns="http://www.w3.org/2000/svg" version="1.1" xmlns:xlink="http://www.w3.org/1999/xlink" width="512" height="512" x="0" y="0" viewBox="0 0 64 64" style="enable-background:new 0 0 512 512" xml:space="preserve" class=""><g><g style="fill:none;stroke:#010101;stroke-linecap:round;stroke-linejoin:round;stroke-miterlimit:10;stroke-width:2"><path d="M30.7 29.2H18.8M8 28.8l-3.5-1.3c-.5-.2-.9-.7-1-1.2l-.1-1.2c-.1-.5.1-1 .6-1.4.3-.2.5-.5.5-.9l.3-1.3c.1-.7.8-1.2 1.5-1.2h1.3c.2 0 .4 0 .6-.1 5.5-2.4 6.9-3.8 11.3-4 4.3-.5 5.9 1.2 9.7 4.3.3.2.7.4 1.1.3 4.6-.3 8.8.3 12.4 2.2.5.3.8.8.8 1.3v2.8c0 .8-.6 1.5-1.5 1.5h-.6" fill="#23211f" opacity="1" data-original="#000000" class=""></path><circle cx="36" cy="27.9" r="3.3" fill="#23211f" opacity="1" data-original="#000000" class=""></circle><circle cx="13.4" cy="27.9" r="3.3" fill="#23211f" opacity="1" data-original="#000000" class=""></circle><path d="M42.9 42.5H24M7.3 42.5H3.9c-1.6 0-2.9-1.3-2.9-2.9v-3.1c0-1.6 1.3-3 3-3h43.9v-14c0-1.6 1.3-3 3-3h4.7c1.6 0 3 1 3.6 2.4l.6 1.4 3 7.3c.2.4.2.8.3 1.1v10.8c0 1.6-1.3 2.9-2.9 2.9h-.6" fill="#23211f" opacity="1" data-original="#000000" class=""></path><path d="M56.5 20.3H54c-1.1 0-1.9.9-1.9 1.9v4.6c0 1.1.9 1.9 1.9 1.9h5.9M52.1 32.1v1.8M63 35v.6c0 .9-.7 1.6-1.6 1.6h-.1c-1 0-2-.4-2.7-1.1-1-1-.2-2.7 1.2-2.7h1.6c.9 0 1.6.7 1.6 1.6zM56.5 42.5c0 2.9-2.4 5.3-5.3 5.3s-5.3-2.4-5.3-5.3 2.4-5.3 5.3-5.3c3 0 5.3 2.3 5.3 5.3zM20.9 42.5c0 2.9-2.4 5.3-5.3 5.3s-5.3-2.4-5.3-5.3 2.4-5.3 5.3-5.3 5.3 2.3 5.3 5.3z" fill="#23211f" opacity="1" data-original="#000000" class=""></path></g></g></svg>