<svg xmlns="http://www.w3.org/2000/svg" version="1.1" xmlns:xlink="http://www.w3.org/1999/xlink" width="512" height="512" x="0" y="0" viewBox="0 0 511.995 511.995" style="enable-background:new 0 0 512 512" xml:space="preserve" class=""><g><path d="M217.598 7.5c103.489 0 187.383 83.894 187.383 187.383 0 138.284-134.644 268.648-175.664 305.155a17.621 17.621 0 0 1-23.438 0c-41.02-36.507-175.664-166.871-175.664-305.155C30.215 91.394 114.109 7.5 217.598 7.5z" style="" fill="#f2bc1b" data-original="#fd8087" opacity="1" class=""></path><path d="M330.177 45.082c16.358 28.139 25.734 60.839 25.734 95.732 0 140.781-137.075 273.498-178.835 310.664-4.767 4.242-11.221 5.502-17 3.801 18.826 20.059 35.355 35.459 45.804 44.759a17.621 17.621 0 0 0 23.438 0c41.02-36.507 175.664-166.871 175.664-305.155-.001-61.236-29.379-115.607-74.805-149.801z" style="" fill="#f2a30f" data-original="#fe646f" class="" opacity="1"></path><circle cx="217.598" cy="194.883" r="105.816" style="" fill="#eaf6ff" data-original="#eaf6ff" class=""></circle><path d="M274.044 105.37c10.323 16.337 16.303 35.692 16.303 56.446 0 58.441-47.376 105.816-105.816 105.816-20.754 0-40.109-5.98-56.446-16.303 18.746 29.666 51.826 49.371 89.513 49.371 58.441 0 105.816-47.376 105.816-105.816.001-37.688-19.705-70.768-49.37-89.514z" style="" fill="#d8ecfe" data-original="#d8ecfe" class=""></path><path d="M461.577 338.576H332.322l-28.889-28.889c-3.818-3.818-10.347-1.114-10.347 4.286v24.603H231.26c-11.158 0-20.203 9.045-20.203 20.203v80.813c0 11.158 9.045 20.203 20.203 20.203h230.317c11.158 0 20.203-9.045 20.203-20.203v-80.813c0-11.158-9.045-20.203-20.203-20.203z" style="" fill="#a67a53" data-original="#8ac9fe" class="" opacity="1"></path><path d="M461.577 338.576h-28.285c11.158 0 20.203 9.045 20.203 20.203v80.813c0 11.158-9.045 20.203-20.203 20.203h28.285c11.158 0 20.203-9.045 20.203-20.203v-80.813c0-11.158-9.045-20.203-20.203-20.203z" style="" fill="#bf8d50" data-original="#60b7ff" class="" opacity="1"></path><circle cx="217.598" cy="194.883" r="105.816" style="stroke-width:15;stroke-linecap:round;stroke-linejoin:round;stroke-miterlimit:10;" fill="none" stroke="#000000" stroke-width="15" stroke-linecap="round" stroke-linejoin="round" stroke-miterlimit="10" data-original="#000000" class=""></circle><path d="m238.396 145.282-41.633 99.203" style="stroke-width:15;stroke-linecap:round;stroke-linejoin:round;stroke-miterlimit:10;" fill="none" stroke="#000000" stroke-width="15" stroke-linecap="round" stroke-linejoin="round" stroke-miterlimit="10" data-original="#000000" class=""></path><circle cx="174.987" cy="162.918" r="17.636" style="stroke-width:15;stroke-linecap:round;stroke-linejoin:round;stroke-miterlimit:10;" fill="none" stroke="#000000" stroke-width="15" stroke-linecap="round" stroke-linejoin="round" stroke-miterlimit="10" data-original="#000000" class=""></circle><circle cx="260.21" cy="226.849" r="17.636" style="stroke-width:15;stroke-linecap:round;stroke-linejoin:round;stroke-miterlimit:10;" fill="none" stroke="#000000" stroke-width="15" stroke-linecap="round" stroke-linejoin="round" stroke-miterlimit="10" data-original="#000000" class=""></circle><path d="M47.208 116.82c-10.91 23.76-16.99 50.21-16.99 78.07 0 138.28 134.64 268.64 175.67 305.15 6.67 5.94 16.74 5.94 23.43 0 9.65-8.59 24.49-22.38 41.54-40.25M362.487 338.57c22.91-40.93 39.92-86.34 42.23-132.91M64.747 86.47c33.95-47.79 89.76-78.97 152.85-78.97 95.25 0 173.91 71.07 185.82 163.09M305.252 426.46l20.483-53.78c.419-1.023 1.867-1.025 2.288-.002l20.297 53.783M311.64 413.066h30.394M378.778 371.934v54.503h19.101" style="stroke-width:15;stroke-linecap:round;stroke-linejoin:round;stroke-miterlimit:10;" fill="none" stroke="#000000" stroke-width="15" stroke-linecap="round" stroke-linejoin="round" stroke-miterlimit="10" data-original="#000000" class=""></path><path d="M275.288 377.519s-9.788-8.228-21.331-4.751c-10.598 3.193-12.452 16.035-4.413 20.413 3.76 2.048 7.524 3.357 15.869 6.435 20.089 7.41 11.435 26.844-4.737 26.844-8.098 0-14.895-3.546-19.009-8.086M451.169 371.911h-22.985v54.549h22.985M449.474 399.185h-21.29" style="stroke-width:15;stroke-linecap:round;stroke-linejoin:round;stroke-miterlimit:10;" fill="none" stroke="#000000" stroke-width="15" stroke-linecap="round" stroke-linejoin="round" stroke-miterlimit="10" data-original="#000000" class=""></path><path d="M377.138 459.8h84.44c11.16 0 20.2-9.05 20.2-20.21v-80.81c0-11.16-9.04-20.2-20.2-20.2h-129.26l-28.89-28.89c-3.81-3.82-10.34-1.12-10.34 4.28v24.61h-61.83c-11.16 0-20.2 9.04-20.2 20.2v80.81c0 11.16 9.04 20.21 20.2 20.21h110.78" style="stroke-width:15;stroke-linecap:round;stroke-linejoin:round;stroke-miterlimit:10;" fill="none" stroke="#000000" stroke-width="15" stroke-linecap="round" stroke-linejoin="round" stroke-miterlimit="10" data-original="#000000" class=""></path></g></svg>