<svg xmlns="http://www.w3.org/2000/svg" version="1.1" xmlns:xlink="http://www.w3.org/1999/xlink" width="512" height="512" x="0" y="0" viewBox="0 0 64 64" style="enable-background:new 0 0 512 512" xml:space="preserve" class=""><g><path d="M15 40c-.203 0-.405-.062-.579-.185C14.199 39.658 9 35.918 9 31.58a3.585 3.585 0 0 1 3.581-3.581c.913 0 1.771.353 2.419.947a3.586 3.586 0 0 1 2.419-.947A3.585 3.585 0 0 1 21 31.58c0 4.337-5.2 8.078-5.421 8.235A.999.999 0 0 1 15 40zm-2.419-10c-.872 0-1.581.709-1.581 1.581 0 2.398 2.511 4.946 3.999 6.16 1.488-1.217 4.001-3.77 4.001-6.16 0-.872-.709-1.581-1.581-1.581-.658 0-1.253.416-1.481 1.035a1 1 0 0 1-1.876 0A1.585 1.585 0 0 0 12.581 30zM53 15c-.203 0-.405-.062-.579-.185-.35-.249-3.421-2.507-3.421-5.267A2.55 2.55 0 0 1 51.548 7 2.55 2.55 0 0 1 53 7.457 2.54 2.54 0 0 1 54.452 7 2.55 2.55 0 0 1 57 9.548c0 2.76-3.071 5.019-3.421 5.267A.999.999 0 0 1 53 15zm-1.452-6a.549.549 0 0 0-.548.548c0 1.161 1.158 2.434 2 3.172.842-.738 2-2.011 2-3.172A.549.549 0 0 0 54.452 9a.551.551 0 0 0-.513.359 1 1 0 0 1-1.876 0A.55.55 0 0 0 51.55 9z" fill="#f2bc1b" opacity="1" data-original="#000000" class=""></path><path d="M15 64c-.309 0-.6-.143-.79-.386C13.63 62.868 0 45.203 0 33c0-8.271 6.729-15 15-15s15 6.729 15 15c0 12.203-13.63 29.868-14.21 30.614A1.002 1.002 0 0 1 15 64zm0-44C7.832 20 2 25.832 2 33c0 9.892 10.07 24.339 13 28.331C17.93 57.339 28 42.892 28 33c0-7.168-5.832-13-13-13zM53 32c-.289 0-.562-.125-.752-.341C51.83 31.18 42 19.846 42 11c0-6.065 4.935-11 11-11s11 4.935 11 11c0 8.845-9.829 20.18-10.248 20.659A1 1 0 0 1 53 32zm0-30c-4.962 0-9 4.038-9 9 0 6.748 6.712 15.611 9 18.437 2.288-2.825 9-11.689 9-18.437 0-4.962-4.038-9-9-9z" fill="#f2bc1b" opacity="1" data-original="#000000" class=""></path><path d="M60 64H8a1 1 0 1 1 0-2h52c1.103 0 2-.897 2-2s-.897-2-2-2H36c-3.309 0-6-2.691-6-6s2.691-6 6-6h17c1.654 0 3-1.346 3-3s-1.346-3-3-3H36c-1.654 0-3-1.346-3-3s1.346-3 3-3h13c1.654 0 3-1.346 3-3a1 1 0 0 1 2 0c0 2.757-2.243 5-5 5H36a1.001 1.001 0 0 0 0 2h17c2.757 0 5 2.243 5 5s-2.243 5-5 5H36c-2.206 0-4 1.794-4 4s1.794 4 4 4h24c2.206 0 4 1.794 4 4s-1.794 4-4 4z" fill="#f2bc1b" opacity="1" data-original="#000000" class=""></path><path d="M56 32h-6a1 1 0 0 1 0-2h6a1 1 0 0 1 0 2zM15 44C8.935 44 4 39.065 4 33s4.935-11 11-11 11 4.935 11 11-4.935 11-11 11zm0-20c-4.962 0-9 4.038-9 9s4.038 9 9 9 9-4.037 9-9-4.038-9-9-9zM53 19c-4.411 0-8-3.589-8-8s3.589-8 8-8 8 3.589 8 8-3.589 8-8 8zm0-14c-3.309 0-6 2.691-6 6s2.691 6 6 6 6-2.691 6-6-2.691-6-6-6z" fill="#f2bc1b" opacity="1" data-original="#000000" class=""></path></g></svg>