<svg xmlns="http://www.w3.org/2000/svg" version="1.1" xmlns:xlink="http://www.w3.org/1999/xlink" width="512" height="512" x="0" y="0" viewBox="0 0 64 64" style="enable-background:new 0 0 512 512" xml:space="preserve" class=""><g><path d="M62 7.788a1 1 0 0 0-1-1h-7.422a2.59 2.59 0 0 0-2.586 2.587c0 1.203.83 2.208 1.944 2.495v6.673c0 1.039.64 1.98 1.631 2.397.565.236.93.764.93 1.344 0 .783-.73 1.47-1.561 1.47-.135 0-.263-.021-.388-.051a8.366 8.366 0 0 0-1.052-.854 1.388 1.388 0 0 1-.121-.565 1 1 0 0 0-1-1 .99.99 0 0 0-.878.547 8.59 8.59 0 0 0-5.857.051l.473-3.535a3.017 3.017 0 0 0-2.509-3.367l-13.843-2.172a1 1 0 0 0-1.144.833c-.456 2.906 1.54 5.648 4.453 6.114l4.349.732c-1.882-.17-5.598-.064-9.281 2.617-4.01 2.92-4.288 6.307-4.181 7.806l-5.99 3.48-2.303-1.254a.992.992 0 0 0-.795-.07L2.684 36.794a1 1 0 0 0 .043 1.91l10.343 2.937c.363.1.746-.006 1.002-.277.42-.446.896-.864 1.417-1.243 4.732-3.446 11.381-2.4 14.823 2.327a10.487 10.487 0 0 1 1.805 4.047c.076.367.352.66.713.76l.146.04a1 1 0 0 0 .854-.155l7.887-5.743c.22-.16.366-.405.402-.675l.537-4.014a8.559 8.559 0 0 0 5.01 1.621c1.743 0 3.496-.53 4.994-1.62 3.552-2.586 4.514-7.424 2.358-11.145 1.417-.46 2.478-1.768 2.478-3.28 0-1.39-.846-2.641-2.154-3.19-.247-.103-.406-.32-.406-.552v-6.582H61a1 1 0 0 0 1-1zM33.717 44.75a12.552 12.552 0 0 0-1.787-3.478c-2.463-3.383-6.309-5.18-10.206-5.18a12.556 12.556 0 0 0-8.674 3.466l-6.658-1.891 7.697-2.566 2.415 1.315a.994.994 0 0 0 .98-.014l7.056-4.098c.38-.221.57-.674.469-1.103-.033-.142-.774-3.509 3.306-6.478 3.15-2.295 6.311-2.394 7.918-2.243a2.014 2.014 0 0 0 2.178-1.707 2.03 2.03 0 0 0-1.687-2.316l-4.341-.677a3.367 3.367 0 0 1-2.794-2.816l12.705 1.994c.535.084.91.587.837 1.121v.003l-1.726 12.897-.478 3.569v.003l-.734 5.483zm17.765-9.656c-2.625 1.913-6.28 1.57-8.51-.739l.268-2.01c.094.164.175.333.287.488a5.066 5.066 0 0 0 3.33 2.035 5.063 5.063 0 0 0 3.794-.914 5.107 5.107 0 0 0 1.12-7.123 5.066 5.066 0 0 0-3.33-2.035 5.052 5.052 0 0 0-3.793.914c-.215.157-.404.34-.59.524l.27-2.002c2.091-1.244 4.687-1.166 6.7.043.356.494.843.888 1.41 1.146.167.182.329.371.477.575a6.52 6.52 0 0 1-1.433 9.098zm-6.893-5.744a3.075 3.075 0 0 1 1.237-2.023 3.074 3.074 0 0 1 2.305-.555 3.075 3.075 0 0 1 2.022 1.237 3.102 3.102 0 0 1-.68 4.328 3.1 3.1 0 0 1-4.884-2.987zM60 9.96h-6.422a.586.586 0 0 1 0-1.173H60z" fill="#23211f" opacity="1" data-original="#000000" class=""></path><path d="M21.74 53.794c1.04 0 2.09-.317 2.994-.975a5.104 5.104 0 0 0 1.121-7.122 5.066 5.066 0 0 0-3.329-2.035 5.057 5.057 0 0 0-3.794.914 5.068 5.068 0 0 0-2.035 3.33 5.096 5.096 0 0 0 5.043 5.889zm-3.067-5.578a3.08 3.08 0 0 1 1.237-2.023 3.075 3.075 0 0 1 2.306-.555 3.075 3.075 0 0 1 2.022 1.237c.488.669.685 1.487.556 2.305s-.567 1.535-1.237 2.022a3.1 3.1 0 0 1-4.884-2.986z" fill="#23211f" opacity="1" data-original="#000000" class=""></path><path d="M21.745 57.208c1.737 0 3.49-.53 5-1.627a8.457 8.457 0 0 0 3.399-5.56 8.46 8.46 0 0 0-1.528-6.334 8.457 8.457 0 0 0-5.56-3.399 8.46 8.46 0 0 0-6.333 1.527c-3.795 2.764-4.635 8.1-1.872 11.894a8.51 8.51 0 0 0 6.894 3.499zM17.9 43.433a6.46 6.46 0 0 1 4.846-1.17A6.468 6.468 0 0 1 27 44.866c1.024 1.406 1.44 3.127 1.169 4.846s-1.194 3.23-2.602 4.253c-2.903 2.115-6.984 1.47-9.098-1.433s-1.472-6.984 1.432-9.098z" fill="#23211f" opacity="1" data-original="#000000" class=""></path></g></svg>