<svg xmlns="http://www.w3.org/2000/svg" version="1.1" xmlns:xlink="http://www.w3.org/1999/xlink" width="512" height="512" x="0" y="0" viewBox="0 0 512 512" style="enable-background:new 0 0 512 512" xml:space="preserve" class=""><g><path fill-rule="evenodd" d="M270.925 177.15c-7.752-7.873-16.609-14.64-26.329-20.175l9.72-5.538h8.119c4.677 0 8.367-3.813 8.367-8.365 0-4.675-3.69-8.367-8.367-8.367h-10.337c-1.352 0-2.827.368-4.18 1.106l-12.55 7.384c-4.798-9.967-9.472-18.455-13.902-25.468-2.586-4.061-6.399-6.521-11.076-7.26a383.86 383.86 0 0 0-110.115 0c-4.796.738-8.483 3.199-11.069 7.26-4.429 7.013-9.105 15.5-13.902 25.468l-12.551-7.384c-1.353-.738-2.828-1.106-4.183-1.106H48.11c-4.551 0-8.242 3.691-8.242 8.367 0 4.552 3.691 8.365 8.242 8.365h8.244l9.721 5.538c-9.721 5.535-18.579 12.302-26.328 20.175-3.076 3.077-4.555 6.891-4.555 11.196v49.583c0 7.505 5.168 13.78 12.181 15.38v18.456a7.459 7.459 0 0 0 7.508 7.503h30.141c4.184 0 7.628-3.322 7.628-7.503v-17.963h17.718c2.951-3.323 7.012-5.044 11.564-5.044h66.809c4.552 0 8.611 1.721 11.563 5.044h17.718v17.963c0 4.181 3.445 7.503 7.628 7.503h30.141a7.457 7.457 0 0 0 7.506-7.503V253.31c7.011-1.6 12.184-7.875 12.184-15.38v-49.583c-.002-4.306-1.484-8.119-4.556-11.197zm29.649 175.816c4.552 0 8.368 3.814 8.368 8.366 0 4.553-3.816 8.365-8.368 8.365H173.728a50.574 50.574 0 0 0-3.197-16.731zM122.3 336.11c19.193 0 34.695 15.5 34.695 34.695 0 19.192-15.502 34.695-34.695 34.695s-34.693-15.502-34.693-34.695c-.001-19.194 15.499-34.695 34.693-34.695zm-51.304 33.587H40.979c-4.682 0-8.368-3.812-8.368-8.365 0-4.552 3.687-8.366 8.368-8.366h33.093c-1.846 5.288-2.954 10.827-3.076 16.731zm221.212-223.426c0-4.674 3.691-8.367 8.366-8.367 4.552 0 8.368 3.693 8.368 8.367v157.852c0 4.552-3.816 8.365-8.368 8.365H44.666l-24.237 27.191c-3.075 3.445-8.364 3.814-11.812.737-3.442-3.075-3.688-8.365-.614-11.812l26.452-29.773c1.599-1.843 3.814-3.075 6.524-3.075h251.229zm8.366 178.149c4.552 0 8.368 3.693 8.368 8.245 0 4.675-3.816 8.367-8.368 8.367H164.253c-5.166-7.136-11.931-12.919-19.929-16.612zM80.469 341.032h-39.49c-4.682 0-8.368-3.691-8.368-8.367 0-4.552 3.687-8.245 8.368-8.245h59.295c-7.869 3.693-14.762 9.476-19.805 16.612zm425.448 10.579c-.986-4.675-2.217-13.902-3.691-25.099h-23.499c-4.676 0-8.858-1.844-11.936-4.921-3.079-3.075-5.043-7.382-5.043-12.057v-13.042c0-4.552 3.692-8.365 8.365-8.365h26.33c-.865-4.92-1.725-9.72-2.709-14.147-.614-2.833-1.965-4.924-4.306-6.521-14.516-9.968-37.155-17.103-67.792-21.287l-23.622-40.722c-1.229-2.092-3.323-3.323-5.781-3.323h-62.504a6.618 6.618 0 0 0-6.639 6.645v155.513h49.952c3.194-25.221 24.727-44.785 50.933-44.785 26.209 0 47.736 19.564 50.938 44.785h20.665c3.324 0 6.155-1.354 8.245-3.938 2.094-2.461 2.709-5.536 2.094-8.736zm-81.941-15.501c19.193 0 34.694 15.5 34.694 34.695 0 19.192-15.501 34.695-34.694 34.695-19.191 0-34.695-15.502-34.695-34.695-.001-19.194 15.503-34.695 34.695-34.695zm75.909-26.207c-.245-1.723-.49-3.443-.736-5.044h-20.667V309.781c.122 0 .245.123.245.123h21.158zm-148.991-55.732h13.78l5.783 8.981h35.927l-22.519-39.865h-32.972a6.62 6.62 0 0 0-6.645 6.644v17.472c.001 3.691 2.955 6.768 6.646 6.768zm6.642 41.46c-1.474 1.969-3.934 3.322-6.643 3.322-4.673 0-8.366-3.69-8.366-8.365 0-3.201 1.352-6.152 3.446-8.244.247-.246.615-.492.861-.737 1.967-1.6 4.552-2.707 7.383-2.707h12.301c3.199 0 6.154 1.352 8.243 3.444 2.095 2.092 3.447 5.043 3.447 8.244 0 4.675-3.816 8.365-8.368 8.365-2.708 0-5.167-1.353-6.641-3.322zm-232.405-82.923c-4.676-.246-8.121-4.06-7.997-8.614.245-4.674 4.06-8.119 8.735-7.995 9.35.491 19.314.615 29.402.615 10.214 0 20.058-.124 29.53-.615 4.674-.124 8.49 3.321 8.736 7.995.121 4.554-3.323 8.368-8.001 8.614-10.455.491-20.547.737-30.266.737-9.718.001-19.682-.245-30.139-.737zm-62.257 25.099c-4.55 0-8.368-3.814-8.368-8.366s3.818-8.365 8.368-8.365h15.505c4.552 0 8.239 3.813 8.239 8.365s-3.688 8.366-8.239 8.366zm169.418 0c-4.554 0-8.245-3.814-8.245-8.366s3.691-8.365 8.245-8.365h15.503c4.553 0 8.361 3.813 8.361 8.365s-3.809 8.366-8.361 8.366zM93.389 206.802c-10.58 0-21.41-.738-32.356-2.215-7.016-.982-10.213-18.208-.985-19.807 10.457-1.846 28.297 5.659 36.665 14.271 1.351 1.355 1.721 3.321.983 5.044-.739 1.723-2.341 2.829-4.307 2.707zm123.772 0c10.7 0 21.531-.738 32.479-2.215 7.011-.982 10.21-18.208.861-19.807-10.334-1.846-28.298 5.659-36.542 14.271-1.351 1.355-1.722 3.321-.983 5.044.738 1.723 2.336 2.829 4.185 2.707zm5.41-51.918c-4.551-9.474-9.474-19.072-15.008-27.929a362.285 362.285 0 0 0-104.457 0c-5.534 8.857-10.457 18.332-15.009 27.929z" clip-rule="evenodd" fill="#23211f" opacity="1" data-original="#000000" class=""></path></g></svg>